<?xml version="1.0" encoding="utf-8"?>
<!-- Generator: Adobe Illustrator 14.0.0, SVG Export Plug-In . SVG Version: 6.00 Build 43363)  -->
<!DOCTYPE svg PUBLIC "-//W3C//DTD SVG 1.1//EN" "http://www.w3.org/Graphics/SVG/1.1/DTD/svg11.dtd">
<svg version="1.1" id="Layer_1" xmlns="http://www.w3.org/2000/svg" xmlns:xlink="http://www.w3.org/1999/xlink" x="0px" y="0px"
	 width="2596.002px" height="828.055px" viewBox="0 0 2596.002 828.055" enable-background="new 0 0 2596.002 828.055"
	 xml:space="preserve">
<g>
	<g transform="translate(0.000000,512.000000) scale(0.100000,-0.100000)">
		<path fill="#FFFFFF" d="M22097.215,552.099c-10.391-3.809-145.674-135.273-299.844-290.391
			c-261.953-261.992-281.855-284.668-281.855-315.918c0-41.602,21.738-72.812,62.422-89.844c27.432-11.309,36.875-11.309,63.35,0
			c17.021,7.598,152.275,136.23,307.432,291.367c262.988,264.824,276.172,280,276.172,313.066c0,45.43-21.719,77.578-58.594,90.781
			C22132.195,563.447,22122.771,563.447,22097.215,552.099z"/>
		<path fill="#FFFFFF" d="M22051.834-523.33c-227.988-227.969-420.957-425.644-428.486-439.805
			c-21.738-41.602-16.055-72.852,18.965-107.832c35.01-35.019,66.201-40.664,107.813-18.965
			c14.199,7.637,211.904,200.508,439.824,428.496l413.32,415.254v41.582c0,59.551-35.01,94.57-93.623,94.57h-42.568
			L22051.834-523.33z"/>
		<path fill="#FFFFFF" d="M22852.977-773.037c-192.012-191.094-287.529-293.203-290.391-310.273
			c-12.256-61.484,43.506-121.055,104.033-111.582c31.23,5.684,70.986,41.621,312.139,282.793
			c152.295,152.285,280.947,287.539,287.549,302.656c13.262,33.086-2.832,85.137-34.072,105.957
			c-12.295,8.477-38.75,15.098-58.633,15.098C23139.578-488.389,23125.379-501.592,22852.977-773.037z"/>
	</g>
	<path fill="#FFFFFF" d="M2520.923,455.739l-148.361-35.83l-35.891-148.424c0,0,210.182-106.059,250.279-65.965
		C2627.046,245.618,2520.923,455.739,2520.923,455.739z M2354.496,437.976l-35.895-148.422c0,0-74.412,194.055-42.075,226.391
		c32.335,32.336,226.39-42.076,226.39-42.076L2354.496,437.976L2354.496,437.976z"/>
</g>
<g>
	<path fill="#FFFFFF" d="M159.38,466.979v160.24H0.001V196.466H159.38v143.871h156.507V196.466h158.518v430.467l-158.518,0.287
		v-160.24H159.38z"/>
	<path fill="#FFFFFF" d="M868.112,196.466c70.257,1.535,106.346,36.09,108.262,103.668v56.285
		c0,71.986-35.515,108.648-106.54,109.986H671.689V627.22H516.904V196.466H868.112z M671.689,320.81v30.441h169.143V320.81H671.689z
		"/>
</g>
<g>
	<path fill="#FFFFFF" d="M1241.359,371.487h-182.021V225.87c0-19.602,10.03-29.404,30.104-29.404h150.169v29.754h-139.316v39.205
		h78.059v29.754h-78.059v43.404h141.065V371.487z"/>
	<path fill="#FFFFFF" d="M1525.94,371.487h-38.854l-22.752-38.154h-113.414l-21.703,38.154h-40.255l98.362-175.021h38.854
		L1525.94,371.487z M1446.13,301.479l-39.204-71.059l-38.854,71.059H1446.13z"/>
	<path fill="#FFFFFF" d="M1783.221,330.183c0,16.338-3.271,27.305-9.802,32.902c-6.536,5.602-18.322,8.402-35.354,8.402h-108.514
		c-18.438,0-30.573-3.15-36.404-9.451c-5.836-6.301-8.751-19.717-8.751-40.254h40.605v16.451h121.114v-39.555h-113.063
		c-17.038,0-28.765-2.855-35.18-8.576c-6.421-5.715-9.626-16.742-9.626-33.08v-19.25c0-16.332,3.205-27.303,9.626-32.904
		c6.415-5.602,18.142-8.402,35.18-8.402h145.968v30.805h-154.019v37.455h113.063c17.031,0,28.817,2.799,35.354,8.4
		c6.53,5.6,9.802,16.572,9.802,32.904V330.183z"/>
	<path fill="#FFFFFF" d="M2047.849,197.167l-89.96,95.91v78.41h-40.604v-77.359l-90.313-96.961h51.457l59.507,66.857l62.308-66.857
		H2047.849z"/>
</g>
<g>
	<path fill="#FFFFFF" d="M1241.359,627.22h-182.021V481.601c0-19.602,10.03-29.402,30.104-29.402h150.169v29.754h-139.316v39.205
		h78.059v29.754h-78.059v43.404h141.065V627.22z"/>
	<path fill="#FFFFFF" d="M1620.802,484.052h-77.01V627.22h-40.954V484.052h-76.66v-31.154h194.624V484.052z"/>
	<path fill="#FFFFFF" d="M2028.25,627.22h-40.954v-71.76h-123.565v71.76h-40.605V452.55h40.605v67.557h123.565V452.55h40.954V627.22
		z"/>
</g>
</svg>
