<?xml version="1.0" encoding="utf-8"?>
<!-- Generator: Adobe Illustrator 14.0.0, SVG Export Plug-In . SVG Version: 6.00 Build 43363)  -->
<!DOCTYPE svg PUBLIC "-//W3C//DTD SVG 1.1//EN" "http://www.w3.org/Graphics/SVG/1.1/DTD/svg11.dtd">
<svg version="1.1" id="Layer_1" xmlns="http://www.w3.org/2000/svg" xmlns:xlink="http://www.w3.org/1999/xlink" x="0px" y="0px"
	 width="1136.766px" height="200px" viewBox="0 0 1136.766 200" enable-background="new 0 0 1136.766 200" xml:space="preserve">
<g>
	<line fill="none" stroke="#FFFFFF" stroke-width="20" x1="800" y1="100" x2="649.815" y2="100"/>
	<circle fill="none" stroke="#FFFFFF" stroke-width="20" cx="563.889" cy="100" r="85.926"/>
	<circle fill="none" stroke="#383B5C" stroke-width="20" cx="885.926" cy="100" r="85.926"/>
	<line fill="none" stroke="#383B5C" stroke-width="20" x1="0" y1="100" x2="164.912" y2="100"/>
	<line fill="none" stroke="#383B5C" stroke-width="20" x1="971.854" y1="100" x2="1136.766" y2="100"/>
	<line fill="none" stroke="#FFFFFF" stroke-width="20" x1="335.688" y1="100" x2="479.091" y2="100"/>
	<circle fill="none" stroke="#383B5C" stroke-width="20" cx="250.838" cy="100" r="85.926"/>
</g>
<g>
	<path fill="#383B5C" stroke="#383B5C" d="M934.232,57.323l2.568,3.668c-10.467,7.875-22.107,20.003-34.92,36.386
		c-12.813,16.385-22.594,31.691-29.344,45.924l-5.428,3.668c-4.5,3.13-7.557,5.453-9.17,6.969c-0.637-2.299-2.03-6.063-4.182-11.298
		l-2.055-4.768c-2.934-6.847-5.66-11.909-8.18-15.186c-2.52-3.275-5.344-5.453-8.473-6.529c5.282-5.575,10.123-8.363,14.525-8.363
		c3.766,0,7.947,5.111,12.545,15.333l2.273,5.134c8.265-13.938,18.877-27.483,31.838-40.641
		C909.192,74.465,921.859,64.365,934.232,57.323z"/>
</g>
<g>
	<path fill="#FFFFFF" d="M595.948,130.92v16.99H531.83c0.693-6.422,2.776-12.51,6.249-18.26c3.471-5.75,10.327-13.377,20.569-22.88
		c8.245-7.682,13.301-12.89,15.167-15.623c2.517-3.776,3.776-7.508,3.776-11.196c0-4.079-1.097-7.215-3.288-9.406
		s-5.219-3.288-9.08-3.288c-3.819,0-6.857,1.15-9.113,3.45c-2.257,2.301-3.56,6.119-3.906,11.457l-18.227-1.823
		c1.084-10.066,4.492-17.292,10.22-21.676c5.729-4.383,12.89-6.575,21.481-6.575c9.417,0,16.816,2.539,22.197,7.616
		s8.072,11.392,8.072,18.942c0,4.297-0.771,8.388-2.311,12.271c-1.541,3.885-3.982,7.953-7.323,12.206
		c-2.214,2.821-6.207,6.879-11.978,12.172c-5.772,5.295-9.429,8.811-10.969,10.545c-1.541,1.736-2.789,3.43-3.743,5.078H595.948z"/>
</g>
<g>
	<path fill="#383B5C" d="M267.799,147.91h-18.292V78.974c-6.684,6.25-14.56,10.871-23.629,13.866V76.24
		c4.772-1.562,9.959-4.524,15.558-8.885c5.598-4.362,9.439-9.449,11.522-15.265h14.841V147.91z"/>
</g>
</svg>
