<?xml version="1.0" encoding="utf-8"?>
<!-- Generator: Adobe Illustrator 14.0.0, SVG Export Plug-In . SVG Version: 6.00 Build 43363)  -->
<!DOCTYPE svg PUBLIC "-//W3C//DTD SVG 1.1//EN" "http://www.w3.org/Graphics/SVG/1.1/DTD/svg11.dtd">
<svg version="1.1" id="Layer_1" xmlns="http://www.w3.org/2000/svg" xmlns:xlink="http://www.w3.org/1999/xlink" x="0px" y="0px"
	 width="800px" height="800px" viewBox="0 0 800 800" enable-background="new 0 0 800 800" xml:space="preserve">
<linearGradient id="SVGID_1_" gradientUnits="userSpaceOnUse" x1="371.6982" y1="-5.9478" x2="414.2741" y2="806.4471">
	<stop  offset="0" style="stop-color:#0054FF"/>
	<stop  offset="1" style="stop-color:#002777"/>
</linearGradient>
<path fill="url(#SVGID_1_)" d="M137.16,229.262v128.092H9.756V13.021H137.16v115.008h125.107V13.021H388.98v344.104l-126.713,0.229
	V229.262H137.16z M703.701,13.021c56.162,1.227,85.012,28.849,86.543,82.869v44.993c0,57.543-28.391,86.851-85.166,87.92H546.686
	v128.551h-123.73V13.021H703.701z M546.686,112.418v24.333h135.207v-24.333H546.686z M344.333,542.273h-216.7v24.103h216.7v93.659
	h-216.7v22.727h216.7v104.218H0V442.646h344.333V542.273z M583.987,712.374l-59.684,74.376l-154.031,0.229L507.546,615.73
	L371.19,443.335h151.966l61.062,77.131l61.75-77.131H800L660.431,617.107l134.06,169.413H642.754L583.987,712.374z"/>
</svg>
