<?xml version="1.0" encoding="utf-8"?>
<!-- Generator: Adobe Illustrator 14.0.0, SVG Export Plug-In . SVG Version: 6.00 Build 43363)  -->
<!DOCTYPE svg PUBLIC "-//W3C//DTD SVG 1.1//EN" "http://www.w3.org/Graphics/SVG/1.1/DTD/svg11.dtd">
<svg version="1.1" id="Layer_1" xmlns="http://www.w3.org/2000/svg" xmlns:xlink="http://www.w3.org/1999/xlink" x="0px" y="0px"
	 width="2596.002px" height="828.056px" viewBox="0 0 2596.002 828.056" enable-background="new 0 0 2596.002 828.056"
	 xml:space="preserve">
<g>
	<g transform="translate(0.000000,512.000000) scale(0.100000,-0.100000)">
		
			<linearGradient id="SVGID_1_" gradientUnits="userSpaceOnUse" x1="22224.9023" y1="344.2578" x2="22153.9648" y2="344.2578" gradientTransform="matrix(1 0 0 1 0.0015 -3.051758e-005)">
			<stop  offset="0.4182" style="stop-color:#0054FF"/>
			<stop  offset="1" style="stop-color:#002777"/>
		</linearGradient>
		<path fill="url(#SVGID_1_)" d="M22097.227,692.373c-10.391-3.809-145.674-135.273-299.844-290.391
			c-261.953-261.992-281.855-284.668-281.855-315.918c0-41.602,21.738-72.812,62.422-89.844c27.432-11.309,36.875-11.309,63.35,0
			c17.021,7.598,152.275,136.23,307.432,291.367c262.988,264.824,276.172,280,276.172,313.066c0,45.43-21.719,77.578-58.594,90.781
			C22132.207,703.721,22122.783,703.721,22097.227,692.373z"/>
		
			<linearGradient id="SVGID_2_" gradientUnits="userSpaceOnUse" x1="22603.2813" y1="-466.1035" x2="22504.0078" y2="-466.1035" gradientTransform="matrix(1 0 0 1 0.0015 -3.051758e-005)">
			<stop  offset="0.4182" style="stop-color:#0054FF"/>
			<stop  offset="1" style="stop-color:#002777"/>
		</linearGradient>
		<path fill="url(#SVGID_2_)" d="M22051.846-383.057c-227.988-227.969-420.957-425.644-428.486-439.805
			c-21.738-41.602-16.055-72.852,18.965-107.832c35.01-35.02,66.201-40.664,107.813-18.965
			c14.199,7.637,211.904,200.508,439.824,428.496l413.32,415.254v41.582c0,59.551-35.01,94.57-93.623,94.57h-42.568
			L22051.846-383.057z"/>
		
			<linearGradient id="SVGID_3_" gradientUnits="userSpaceOnUse" x1="23270.9863" y1="-701.8652" x2="23199.9766" y2="-701.8652" gradientTransform="matrix(1 0 0 1 0.0015 -3.051758e-005)">
			<stop  offset="0.4182" style="stop-color:#0054FF"/>
			<stop  offset="1" style="stop-color:#002777"/>
		</linearGradient>
		<path fill="url(#SVGID_3_)" d="M22852.988-632.764c-192.012-191.094-287.529-293.203-290.391-310.273
			c-12.256-61.484,43.506-121.055,104.033-111.582c31.23,5.684,70.986,41.621,312.139,282.793
			c152.295,152.285,280.947,287.539,287.549,302.656c13.262,33.086-2.832,85.137-34.072,105.957
			c-12.295,8.477-38.75,15.098-58.633,15.098C23139.59-348.115,23125.391-361.318,22852.988-632.764z"/>
	</g>
	<linearGradient id="SVGID_4_" gradientUnits="userSpaceOnUse" x1="2596.0024" y1="346.2495" x2="2268.3853" y2="346.2495">
		<stop  offset="0.4182" style="stop-color:#0054FF"/>
		<stop  offset="1" style="stop-color:#002777"/>
	</linearGradient>
	<path fill="url(#SVGID_4_)" d="M2520.924,441.712l-148.361-35.83l-35.891-148.424c0,0,210.182-106.059,250.279-65.965
		C2627.047,231.591,2520.924,441.712,2520.924,441.712z M2354.498,423.948l-35.895-148.422c0,0-74.412,194.055-42.075,226.391
		c32.335,32.336,226.39-42.076,226.39-42.076L2354.498,423.948L2354.498,423.948z"/>
</g>
<linearGradient id="SVGID_5_" gradientUnits="userSpaceOnUse" x1="0.0024" y1="397.8154" x2="2047.8501" y2="397.8154">
	<stop  offset="0" style="stop-color:#0054FF"/>
	<stop  offset="1" style="stop-color:#002777"/>
</linearGradient>
<path fill="url(#SVGID_5_)" d="M159.381,452.952v160.24H0.002V182.438h159.379V326.31h156.507V182.438h158.518v430.467
	l-158.518,0.287v-160.24H159.381z M868.114,182.438c70.257,1.535,106.346,36.09,108.262,103.668v56.285
	c0,71.986-35.515,108.648-106.54,109.986H671.69v160.814H516.906V182.438H868.114z M671.69,306.782v30.441h169.143v-30.441H671.69z
	 M1241.361,357.46h-182.021V211.843c0-19.602,10.03-29.404,30.104-29.404h150.169v29.754h-139.316v39.205h78.059v29.754h-78.059
	v43.404h141.065V357.46z M1525.941,357.46h-38.854l-22.752-38.154H1350.92l-21.703,38.154h-40.255l98.362-175.021h38.854
	L1525.941,357.46z M1446.131,287.452l-39.204-71.059l-38.854,71.059H1446.131z M1783.222,316.155
	c0,16.338-3.271,27.305-9.802,32.902c-6.536,5.602-18.322,8.402-35.354,8.402h-108.514c-18.438,0-30.573-3.15-36.404-9.451
	c-5.836-6.301-8.751-19.717-8.751-40.254h40.605v16.451h121.114v-39.555h-113.063c-17.038,0-28.765-2.855-35.18-8.576
	c-6.421-5.715-9.626-16.742-9.626-33.08v-19.25c0-16.332,3.205-27.303,9.626-32.904c6.415-5.602,18.142-8.402,35.18-8.402h145.968
	v30.805h-154.019v37.455h113.063c17.031,0,28.817,2.799,35.354,8.4c6.53,5.6,9.802,16.572,9.802,32.904V316.155z M2047.85,183.14
	l-89.96,95.91v78.41h-40.604v-77.359l-90.313-96.961h51.457l59.507,66.857l62.308-66.857H2047.85z M1241.361,613.192h-182.021
	V467.573c0-19.602,10.03-29.402,30.104-29.402h150.169v29.754h-139.316v39.205h78.059v29.754h-78.059v43.404h141.065V613.192z
	 M1620.803,470.024h-77.01v143.168h-40.954V470.024h-76.66V438.87h194.624V470.024z M2028.251,613.192h-40.954v-71.76h-123.565
	v71.76h-40.605v-174.67h40.605v67.557h123.565v-67.557h40.954V613.192z"/>
</svg>
